<svg xmlns="http://www.w3.org/2000/svg" viewBox="0 0 512 512">
  <defs>
    <linearGradient id="bg" x1="0" y1="0" x2="1" y2="1">
      <stop offset="0%" stop-color="#141420"/>
      <stop offset="100%" stop-color="#09090b"/>
    </linearGradient>
    <!-- α 형태 마스크: 실제 그리스 알파(α) 글리프 - 굵게 -->
    <mask id="am" maskUnits="userSpaceOnUse">
      <rect width="512" height="512" fill="black"/>
      <text x="248" y="420" font-family="Georgia, 'Times New Roman', serif"
            font-size="560" font-weight="bold" text-anchor="middle"
            fill="white">α</text>
    </mask>
  </defs>

  <!-- 배경 -->
  <rect width="512" height="512" rx="108" fill="url(#bg)"/>

  <!-- α 본체 + 회로 패턴 (마스크로 α 영역만 표시) -->
  <g mask="url(#am)">
    <!-- α 기본 채움 -->
    <rect width="512" height="512" fill="#d4d4dc"/>

    <!-- 수평 회로 트레이스 -->
    <g stroke="#11111b" stroke-width="5.5" fill="none" opacity="0.6">
      <line x1="20" y1="78" x2="420" y2="78"/>
      <line x1="20" y1="118" x2="420" y2="118"/>
      <line x1="20" y1="158" x2="420" y2="158"/>
      <line x1="20" y1="198" x2="420" y2="198"/>
      <line x1="20" y1="238" x2="420" y2="238"/>
      <line x1="20" y1="278" x2="420" y2="278"/>
      <line x1="20" y1="318" x2="420" y2="318"/>
      <line x1="20" y1="358" x2="420" y2="358"/>
      <line x1="20" y1="398" x2="420" y2="398"/>
      <line x1="20" y1="438" x2="420" y2="438"/>
      <line x1="20" y1="478" x2="420" y2="478"/>
    </g>

    <!-- 수직 회로 트레이스 -->
    <g stroke="#11111b" stroke-width="4.5" fill="none" opacity="0.45">
      <line x1="128" y1="20" x2="128" y2="500"/>
      <line x1="240" y1="20" x2="240" y2="500"/>
      <line x1="340" y1="20" x2="340" y2="500"/>
    </g>

    <!-- 대각선 커넥터 트레이스 -->
    <g stroke="#11111b" stroke-width="4" fill="none" opacity="0.5">
      <polyline points="128,158 168,158 168,198"/>
      <polyline points="240,278 280,278 280,318"/>
      <polyline points="128,358 178,358 178,398"/>
      <polyline points="340,118 370,118"/>
      <polyline points="340,398 365,398 365,438"/>
    </g>

    <!-- 회로 노드 (접합점) -->
    <g fill="#11111b" opacity="0.7">
      <circle cx="128" cy="118" r="7.5"/>
      <circle cx="240" cy="158" r="7.5"/>
      <circle cx="340" cy="198" r="7"/>
      <circle cx="128" cy="238" r="7.5"/>
      <circle cx="240" cy="318" r="7.5"/>
      <circle cx="128" cy="358" r="7.5"/>
      <circle cx="340" cy="358" r="6.5"/>
      <circle cx="240" cy="438" r="6.5"/>
      <circle cx="340" cy="478" r="6"/>
      <circle cx="168" cy="158" r="5.5"/>
      <circle cx="168" cy="198" r="5.5"/>
      <circle cx="280" cy="278" r="5.5"/>
      <circle cx="280" cy="318" r="5.5"/>
      <circle cx="178" cy="358" r="5.5"/>
      <circle cx="178" cy="398" r="5.5"/>
    </g>
  </g>
</svg>